<?xml version="1.0" encoding="UTF-8"?>
<!DOCTYPE svg PUBLIC "-//W3C//DTD SVG 1.1//EN" "http://www.w3.org/Graphics/SVG/1.1/DTD/svg11.dtd">
<!-- Creator: CorelDRAW X8 -->
<svg xmlns="http://www.w3.org/2000/svg" xml:space="preserve" width="60px" height="50px" version="1.1" style="shape-rendering:geometricPrecision; text-rendering:geometricPrecision; image-rendering:optimizeQuality; fill-rule:evenodd; clip-rule:evenodd"
viewBox="0 0 31 26"
 xmlns:xlink="http://www.w3.org/1999/xlink">
 <defs>
  <style type="text/css">
   <![CDATA[
    .fil0 {fill:#009CDD;fill-rule:nonzero}
    .fil1 {fill:#00A344;fill-rule:nonzero}
   ]]>
  </style>
 </defs>
 <g id="Capa_x0020_1">
  <metadata id="CorelCorpID_0Corel-Layer"/>
  <path class="fil0" d="M14 26l-6 0c0,0 -1,0 -1,-1l0 0 -7 -12 0 0c0,0 0,0 0,0 0,-1 0,-1 0,-1l3 -5 4 6 0 0 1 3 4 6 1 2 1 2z"/>
  <path class="fil0" d="M22 26l-6 0c0,0 0,0 0,0 0,0 0,0 0,0 -1,0 -1,0 -1,-1 0,0 0,0 0,0l-3 -5 -4 -6 0 -1 -1 -2 -3 -5 0 0c0,0 0,0 0,0 0,-1 0,-1 0,-1l0 0 2 -4 1 -1 1 1 2 4 0 1 5 8 1 1 0 1 3 4 0 0 1 2 0 0 1 3c0,0 0,0 0,0l1 1c0,0 0,0 0,0l0 0z"/>
  <path class="fil1" d="M27 6c0,0 0,0 0,0l0 0 -3 5 -1 2 0 1 -3 5 -3 -5 -1 -1 5 -7 0 0 0 0 0 0 0 0 0 0 0 0 0 0 0 -1 3 -4 0 -1 1 1 2 4 0 0 0 0 0 0 0 0c0,0 0,0 0,1z"/>
  <polygon class="fil1" points="31,12 31,12 "/>
  <path class="fil1" d="M31 13c0,0 0,0 0,0l0 0 -7 13 -2 -3 -1 -2 -1 -1 3 -4 2 -3 0 0 3 -6 3 5c0,0 0,0 0,0 0,0 0,0 0,1z"/>
  <polygon class="fil1" points="31,13 31,13 "/>
 </g>
</svg>
